<svg width="94" height="94" viewBox="0 0 94 94" fill="none" xmlns="http://www.w3.org/2000/svg">
<g id="loading-sign 1">
<path id="Vector" d="M46.9997 9.79194C46.6104 9.78643 46.224 9.85834 45.8627 10.0035C45.5015 10.1486 45.1727 10.3641 44.8955 10.6375C44.6183 10.9108 44.3982 11.2365 44.248 11.5956C44.0977 11.9547 44.0203 12.3401 44.0203 12.7294C44.0203 13.1187 44.0977 13.5041 44.248 13.8633C44.3982 14.2224 44.6183 14.5481 44.8955 14.8214C45.1727 15.0947 45.5015 15.3102 45.8627 15.4554C46.224 15.6005 46.6104 15.6724 46.9997 15.6669C65.4203 15.6669 80.2913 30.5379 80.2913 48.9586C80.2913 67.3793 65.4203 82.2503 46.9997 82.2503C36.0072 82.2503 26.2957 76.9426 20.2294 68.7523C19.7658 68.1259 19.0724 67.7093 18.3016 67.5942C17.5309 67.4791 16.746 67.6748 16.1196 68.1384C15.4932 68.602 15.0766 69.2954 14.9615 70.0662C14.8463 70.8369 15.0421 71.6218 15.5057 72.2482C22.6386 81.8787 34.1122 88.1253 46.9997 88.1253C68.5956 88.1253 86.1663 70.5545 86.1663 48.9586C86.1663 27.3627 68.5956 9.79194 46.9997 9.79194ZM35.7622 11.5628C34.9831 11.5628 34.236 11.8723 33.6851 12.4232C33.1342 12.9741 32.8247 13.7213 32.8247 14.5003C32.8247 15.2794 33.1342 16.0266 33.6851 16.5775C34.236 17.1284 34.9831 17.4378 35.7622 17.4378C36.5413 17.4378 37.2884 17.1284 37.8393 16.5775C38.3902 16.0266 38.6997 15.2794 38.6997 14.5003C38.6997 13.7213 38.3902 12.9741 37.8393 12.4232C37.2884 11.8723 36.5413 11.5628 35.7622 11.5628ZM25.6722 16.7302C24.8931 16.7302 24.146 17.0397 23.5951 17.5906C23.0442 18.1415 22.7347 18.8887 22.7347 19.6677C22.7347 20.4468 23.0442 21.194 23.5951 21.7449C24.146 22.2958 24.8931 22.6052 25.6722 22.6052C26.4513 22.6052 27.1984 22.2958 27.7493 21.7449C28.3002 21.194 28.6097 20.4468 28.6097 19.6677C28.6097 18.8887 28.3002 18.1415 27.7493 17.5906C27.1984 17.0397 26.4513 16.7302 25.6722 16.7302ZM17.6744 24.751C16.8953 24.751 16.1482 25.0605 15.5973 25.6114C15.0464 26.1623 14.7369 26.9094 14.7369 27.6885C14.7369 28.4676 15.0464 29.2147 15.5973 29.7656C16.1482 30.3165 16.8953 30.626 17.6744 30.626C18.4535 30.626 19.2006 30.3165 19.7515 29.7656C20.3024 29.2147 20.6119 28.4676 20.6119 27.6885C20.6119 26.9094 20.3024 26.1623 19.7515 25.6114C19.2006 25.0605 18.4535 24.751 17.6744 24.751ZM12.5299 34.8487C11.7509 34.8487 11.0037 35.1581 10.4528 35.709C9.90193 36.2599 9.59245 37.0071 9.59245 37.7862C9.59245 38.5652 9.90193 39.3124 10.4528 39.8633C11.0037 40.4142 11.7509 40.7237 12.5299 40.7237C13.309 40.7237 14.0562 40.4142 14.6071 39.8633C15.158 39.3124 15.4674 38.5652 15.4674 37.7862C15.4674 37.0071 15.158 36.2599 14.6071 35.709C14.0562 35.1581 13.309 34.8487 12.5299 34.8487ZM10.7705 46.0211C9.99143 46.0211 9.24427 46.3306 8.69338 46.8815C8.14249 47.4324 7.83301 48.1795 7.83301 48.9586C7.83301 49.7377 8.14249 50.4848 8.69338 51.0357C9.24427 51.5866 9.99143 51.8961 10.7705 51.8961C11.5496 51.8961 12.2967 51.5866 12.8476 51.0357C13.3985 50.4848 13.708 49.7377 13.708 48.9586C13.708 48.1795 13.3985 47.4324 12.8476 46.8815C12.2967 46.3306 11.5496 46.0211 10.7705 46.0211ZM12.5376 57.2318C11.7585 57.2318 11.0114 57.5413 10.4605 58.0922C9.90958 58.6431 9.6001 59.3902 9.6001 60.1693C9.6001 60.9484 9.90958 61.6955 10.4605 62.2464C11.0114 62.7973 11.7585 63.1068 12.5376 63.1068C13.3167 63.1068 14.0638 62.7973 14.6147 62.2464C15.1656 61.6955 15.4751 60.9484 15.4751 60.1693C15.4751 59.3902 15.1656 58.6431 14.6147 58.0922C14.0638 57.5413 13.3167 57.2318 12.5376 57.2318Z" fill="#F48C02"/>
</g>
</svg>
