<svg xmlns="http://www.w3.org/2000/svg" width="203" height="77" viewBox="0 0 203 77" fill="none">
            <g clip-path="url(#clip0_1_166)">
              <path d="M5.02054 11.4967C5.02054 10.2837 4.37193 9.71429 3.2381 9.71429H0V0.970439H9.47168C13.1158 0.970439 14.8933 2.66871 14.8933 5.58498V6.79802C14.8933 7.68924 14.814 8.58046 14.814 8.58046H14.9774C16.9183 4.53532 21.8547 0 28.3309 0C34.5645 0 38.6096 2.91627 40.3921 8.50124H40.5554C42.7389 4.04515 48.0813 0 54.6417 0C63.2221 0 68.1585 4.85715 68.1585 15.7053V31.8116C68.1585 32.9454 68.8071 33.594 69.9409 33.594H73.0998V42.2537H63.3855C59.4988 42.2537 57.8798 40.6347 57.8798 36.748V17.6461C57.8798 12.9524 56.9885 9.38751 52.2156 9.38751C47.1158 9.38751 43.4717 13.6802 42.3379 18.8592C41.8527 20.4782 41.6893 22.1765 41.6893 24.1223V42.2537H31.4056V17.6461C31.4056 13.195 30.757 9.38751 25.8206 9.38751C20.6416 9.38751 17.1609 13.6802 15.8637 18.9384C15.4577 20.5575 15.2151 22.2557 15.2151 24.1174V42.2488H5.01559V11.4967H5.02054Z" fill="#072249"/>
              <path d="M163.999 11.4967C163.999 10.2837 163.35 9.71431 162.217 9.71431H158.979V0.970452H168.366C172.01 0.970452 173.872 2.51028 173.872 5.99099V8.41709C173.872 9.95692 173.708 11.0066 173.708 11.0066H173.872C175.733 5.09977 180.67 0.401062 186.988 0.401062C187.879 0.401062 188.849 0.564452 188.849 0.564452V10.6847C188.849 10.6847 187.795 10.5214 186.339 10.5214C181.967 10.5214 176.951 13.0316 175.085 19.181C174.52 21.2061 174.194 23.4688 174.194 25.8998V42.2537H163.994V11.4967H163.999Z" fill="#072249"/>
              <path d="M136.06 0C124.241 0 117.765 8.65968 117.765 19.587C117.765 20.8001 118.008 23.3896 118.008 23.3896H146.502C145.69 30.6728 140.347 34.4803 134.119 34.4803C127.479 34.4803 118.641 27.2614 115.631 24.256C112.626 27.2614 103.783 34.4803 97.1481 34.4803C90.9145 34.4803 85.5721 30.6778 84.7651 23.3896H113.259C113.259 23.3896 113.502 20.8001 113.502 19.587C113.497 8.65968 107.021 0 95.2022 0C82.8192 0 74.2388 8.90229 74.2388 21.6121C74.2388 33.3514 82.74 43.2241 96.4202 43.2241C106.699 43.2241 115.631 34.7526 115.631 34.7526C115.631 34.7526 124.563 43.2241 134.842 43.2241C148.522 43.2241 157.023 33.3465 157.023 21.6121C157.028 8.90229 148.448 0 136.06 0ZM128.291 16.2697C128.455 11.3333 131.851 7.93185 136.065 7.93185C141.328 7.93185 145.051 11.0907 146.185 16.2697H128.291ZM95.2022 7.93185C99.4108 7.93185 102.812 11.3333 102.976 16.2697H85.0869C86.2207 11.0907 89.944 7.93185 95.2022 7.93185Z" fill="#072249"/>
              <path d="M197.831 0.109009C200.703 0.109009 203 2.45094 203 5.3672C203 8.28347 200.703 10.6403 197.831 10.6403C194.999 10.6403 192.702 8.28347 192.702 5.3672C192.702 2.45094 194.999 0.109009 197.831 0.109009ZM197.831 9.47176C200.044 9.47176 201.738 7.65962 201.738 5.36225C201.738 3.07974 200.044 1.26759 197.831 1.26759C195.662 1.26759 193.984 3.07974 193.984 5.36225C193.979 7.66457 195.662 9.47176 197.831 9.47176ZM196.034 3.59962H195.573V2.7084H198.217C199.252 2.7084 199.94 3.36691 199.94 4.37696C199.94 5.19391 199.381 5.63952 199.005 5.7435V5.7732C199.005 5.7732 199.193 5.81776 199.336 6.06037L199.797 6.92189C199.896 7.09518 200.015 7.09518 200.114 7.09518H200.272V7.97155H199.584C199.198 7.97155 199.01 7.89728 198.836 7.58535L198.133 6.26337C198.019 6.04552 197.861 6.03562 197.658 6.03562H197.257V7.9765H196.034V3.59962ZM197.93 5.1642C198.405 5.1642 198.693 4.86218 198.693 4.37201C198.693 3.86698 198.405 3.59467 197.945 3.59467H197.257V5.15925H197.93V5.1642Z" fill="#072249"/>
              <path d="M1.47051 61.4549C1.28237 60.9647 0.940732 60.7766 0.415902 60.7766H0V56.7067H2.75288C4.33727 56.7067 5.08985 57.1968 5.58002 58.5139L9.19937 68.6143C9.61527 69.7432 9.91729 71.3672 9.91729 71.3672H9.99156C9.99156 71.3672 10.2936 69.7482 10.6699 68.6143L14.2892 58.5139C14.7794 57.1968 15.5716 56.7067 17.1164 56.7067H19.6811V60.7766H19.2305C18.7008 60.7766 18.3641 60.9647 18.1759 61.4549L12.6751 75.9273H6.97132L1.47051 61.4549Z" fill="#072249"/>
              <path d="M30.2966 56.2509C36.1737 56.2509 40.8476 60.4347 40.8476 66.3118C40.8476 72.2285 36.1737 76.3727 30.2966 76.3727C24.4542 76.3727 19.7852 72.2285 19.7852 66.3118C19.7852 60.4347 24.4542 56.2509 30.2966 56.2509ZM30.2966 72.3077C33.4258 72.3077 36.0252 69.8965 36.0252 66.3167C36.0252 62.7766 33.4258 60.3258 30.2966 60.3258C27.207 60.3258 24.6076 62.7766 24.6076 66.3167C24.6076 69.8965 27.207 72.3077 30.2966 72.3077Z" fill="#072249"/>
              <path d="M52.6413 56.2509C58.5184 56.2509 63.1924 60.4347 63.1924 66.3118C63.1924 72.2285 58.5184 76.3727 52.6413 76.3727C46.7989 76.3727 42.1299 72.2285 42.1299 66.3118C42.1249 60.4347 46.7989 56.2509 52.6413 56.2509ZM52.6413 72.3077C55.7705 72.3077 58.3699 69.8965 58.3699 66.3167C58.3699 62.7766 55.7705 60.3258 52.6413 60.3258C49.5518 60.3258 46.9524 62.7766 46.9524 66.3167C46.9524 69.8965 49.5518 72.3077 52.6413 72.3077Z" fill="#072249"/>
              <path d="M66.3911 61.6033C66.3911 61.0388 66.0891 60.7764 65.5642 60.7764H64.0591V56.7065H68.431C70.1243 56.7065 70.9957 57.4244 70.9957 59.0435V60.1724C70.9957 60.8903 70.9215 61.3805 70.9215 61.3805H70.9957C71.8622 58.6276 74.1596 56.4441 77.1006 56.4441C77.5165 56.4441 77.9671 56.5184 77.9671 56.5184V61.227C77.9671 61.227 77.4769 61.1527 76.7986 61.1527C74.7636 61.1527 72.4266 62.3212 71.5602 65.183C71.2978 66.1237 71.1443 67.1783 71.1443 68.3122V75.9222H66.3961V61.6033H66.3911Z" fill="#072249"/>
              <path d="M86.8941 56.251C91.0779 56.251 92.4345 58.588 92.4345 58.588H92.5088C92.5088 58.588 92.4692 58.0978 92.4692 57.4591V54.0675C92.4692 53.5031 92.1672 53.2407 91.6423 53.2407H90.1372V49.1708H94.6972C96.4698 49.1708 97.262 49.963 97.262 51.7355V71.0651C97.262 71.5949 97.564 71.8919 98.0888 71.8919H99.5593V75.9222H95.1528C93.4198 75.9222 92.7811 75.0954 92.7811 73.9615C92.7811 73.5456 92.7811 73.2436 92.7811 73.2436H92.7069C92.7069 73.2436 91.1225 76.3728 86.7159 76.3728C81.5171 76.3728 78.1602 72.2633 78.1602 66.3119C78.1503 60.212 81.8043 56.251 86.8941 56.251ZM92.5831 66.2772C92.5831 63.3016 91.0383 60.3605 87.8349 60.3605C85.1959 60.3605 83.0124 62.5094 83.0124 66.3169C83.0124 69.9709 84.9334 72.3474 87.7606 72.3474C90.2461 72.3425 92.5831 70.5353 92.5831 66.2772Z" fill="#072249"/>
              <path d="M110.214 56.2509C115.715 56.2509 118.73 60.2812 118.73 65.3711C118.73 65.9355 118.616 67.1436 118.616 67.1436H105.352C105.728 70.5352 108.214 72.3077 111.115 72.3077C114.205 72.3077 116.502 70.1589 116.502 70.1589L118.497 73.4762C118.497 73.4762 115.556 76.3776 110.773 76.3776C104.406 76.3776 100.45 71.7779 100.45 66.3167C100.455 60.4 104.451 56.2509 110.214 56.2509ZM113.833 63.8263C113.759 61.5289 112.175 59.9445 110.214 59.9445C107.763 59.9445 106.03 61.415 105.505 63.8263H113.833Z" fill="#072249"/>
              <path d="M130.073 56.2509C135.574 56.2509 138.589 60.2812 138.589 65.3711C138.589 65.9355 138.476 67.1436 138.476 67.1436H125.211C125.588 70.5352 128.073 72.3077 130.974 72.3077C134.064 72.3077 136.361 70.1589 136.361 70.1589L138.357 73.4762C138.357 73.4762 135.416 76.3776 130.633 76.3776C124.266 76.3776 120.31 71.7779 120.31 66.3167C120.315 60.4 124.31 56.2509 130.073 56.2509ZM133.693 63.8263C133.618 61.5289 132.034 59.9445 130.073 59.9445C127.623 59.9445 125.89 61.415 125.365 63.8263H133.693Z" fill="#072249"/>
              <path d="M141.981 54.0675C141.981 53.5031 141.679 53.2407 141.155 53.2407H139.649V49.1708H144.209C145.982 49.1708 146.774 49.963 146.774 51.7355V71.0651C146.774 71.5949 147.076 71.8919 147.601 71.8919H149.072V75.9222H144.551C142.744 75.9222 141.986 75.1696 141.986 73.3575V54.0675H141.981Z" fill="#072249"/>
              <path d="M151.478 71.1394H156.112V75.9272H151.478V71.1394Z" fill="#49B7AC"/>
              <path d="M158.781 61.6032C158.781 61.0387 158.479 60.7763 157.954 60.7763H156.449V56.7064H160.855C162.549 56.7064 163.38 57.4986 163.38 58.8553V59.4197C163.38 59.8356 163.306 60.2465 163.306 60.2465H163.38C164.207 58.6275 166.282 56.2509 170.164 56.2509C174.422 56.2509 176.873 58.474 176.873 63.5589V71.06C176.873 71.5898 177.175 71.8869 177.699 71.8869H179.205V75.9172H174.644C172.837 75.9172 172.08 75.1646 172.08 73.3524V64.5343C172.08 62.1973 171.476 60.6129 169.064 60.6129C166.5 60.6129 164.579 62.232 163.9 64.5343C163.638 65.3265 163.524 66.193 163.524 67.099V75.9172H158.776V61.6032H158.781Z" fill="#49B7AC"/>
              <path d="M181.764 54.0675C181.764 53.5031 181.462 53.2407 180.937 53.2407H179.432V49.1708H183.992C185.765 49.1708 186.557 49.963 186.557 51.7355V71.0651C186.557 71.5949 186.859 71.8919 187.384 71.8919H188.854V75.9222H184.334C182.527 75.9222 181.769 75.1696 181.769 73.3575V54.0675H181.764Z" fill="#49B7AC"/>
            </g>
            <defs>
              <clipPath id="clip0_1_166">
                <rect width="203" height="76.3775" fill="white"/>
              </clipPath>
            </defs>
          </svg>