<?xml version="1.0" encoding="UTF-8"?>
<svg id="Layer_1" data-name="Layer 1" xmlns="http://www.w3.org/2000/svg" viewBox="0 0 439.79 181.17">
  <defs>
    <style>
      .cls-1 {
        fill: #09b9ab;
      }

      .cls-1, .cls-2 {
        stroke-width: 0px;
      }

      .cls-2 {
        fill: #12254b;
      }
    </style>
  </defs>
  <g id="MV">
    <path class="cls-2" d="m10.88,24.91c0-2.63-1.41-3.86-3.86-3.86H0V2.11h20.52c7.89,0,11.75,3.68,11.75,10v2.63c0,1.93-.17,3.86-.17,3.86h.35C36.65,9.84,47.35.01,61.38.01s22.27,6.32,26.13,18.42h.35C92.59,8.78,104.16.01,118.38.01c18.59,0,29.28,10.52,29.28,34.02v34.89c0,2.46,1.41,3.86,3.86,3.86h6.84v18.76h-21.05c-8.42,0-11.93-3.51-11.93-11.93v-41.38c0-10.17-1.93-17.89-12.27-17.89-11.05,0-18.94,9.3-21.4,20.52-1.05,3.51-1.41,7.19-1.41,11.4v39.28h-22.28v-53.31c0-9.64-1.41-17.89-12.1-17.89-11.22,0-18.76,9.3-21.57,20.69-.88,3.51-1.41,7.19-1.41,11.22v39.28H10.84V24.91h.04,0Z"/>
    <path class="cls-2" d="m355.3,24.91c0-2.63-1.41-3.86-3.86-3.86h-7.02V2.11h20.34c7.89,0,11.93,3.34,11.93,10.88v5.26c0,3.34-.35,5.61-.35,5.61h.35c4.03-12.8,14.73-22.98,28.41-22.98,1.93,0,4.03.35,4.03.35v21.92s-2.28-.35-5.44-.35c-9.47,0-20.34,5.44-24.38,18.76-1.22,4.39-1.93,9.29-1.93,14.56v35.43h-22.1V24.92h.02Z"/>
    <path class="cls-2" d="m295.82,0C270.22,0,256.19,18.76,256.19,42.43c0,2.63.53,8.24.53,8.24h61.73c-1.76,15.78-13.33,24.03-26.83,24.03-14.38,0-33.53-15.64-40.05-22.15-6.51,6.51-25.67,22.15-40.04,22.15-13.5,0-25.08-8.24-26.83-24.03h61.73s.53-5.61.53-8.24C246.95,18.76,232.92,0,207.32,0s-45.42,19.29-45.42,46.82c0,25.43,18.42,46.82,48.05,46.82,22.27,0,41.62-18.35,41.62-18.35h0s19.35,18.35,41.62,18.35c29.64,0,48.05-21.4,48.05-46.82.01-27.53-18.58-46.82-45.42-46.82h0Zm-16.83,35.25c.35-10.69,7.71-18.06,16.84-18.06,11.4,0,19.47,6.84,21.92,18.06h-38.77,0Zm-71.68-18.07c9.12,0,16.49,7.37,16.84,18.06h-38.75c2.46-11.22,10.52-18.06,21.91-18.06Z"/>
    <path class="cls-2" d="m428.59.24c6.22,0,11.2,5.07,11.2,11.39s-4.98,11.42-11.2,11.42-11.11-5.11-11.11-11.42S422.46.24,428.59.24Zm0,20.28c4.79,0,8.46-3.93,8.46-8.9s-3.67-8.87-8.46-8.87-8.33,3.93-8.33,8.87c-.01,4.99,3.64,8.9,8.33,8.9Zm-3.89-12.72h-1v-1.93h5.73c2.24,0,3.73,1.43,3.73,3.61,0,1.77-1.21,2.74-2.03,2.96v.06s.41.1.72.62l1,1.87c.21.38.47.38.69.38h.34v1.9h-1.49c-.84,0-1.24-.16-1.62-.84l-1.52-2.86c-.25-.47-.59-.49-1.03-.49h-.87v4.2h-2.65V7.8h0Zm4.1,3.39c1.03,0,1.65-.65,1.65-1.72s-.62-1.68-1.62-1.68h-1.49v3.39h1.46,0Z"/>
    <path class="cls-1" d="m4.04,140.24c-.52-1.35-1.45-1.86-2.89-1.86H.01v-11.17h7.56c4.35,0,6.41,1.35,7.76,4.96l9.93,27.72c1.14,3.1,1.97,7.56,1.97,7.56h.2s.83-4.44,1.86-7.56l9.93-27.72c1.35-3.61,3.52-4.96,7.76-4.96h7.04v11.17h-1.24c-1.45,0-2.38.52-2.89,1.86l-15.1,39.72h-15.65l-15.1-39.72h0Z"/>
    <path class="cls-1" d="m83.16,125.95c16.13,0,28.96,11.48,28.96,27.61s-12.83,27.61-28.96,27.61-28.85-11.37-28.85-27.61,12.81-27.61,28.85-27.61h0Zm0,44.07c8.59,0,15.72-6.62,15.72-16.44s-7.13-16.44-15.72-16.44-15.61,6.73-15.61,16.44,7.13,16.44,15.61,16.44Z"/>
    <path class="cls-1" d="m145.54,125.95c16.13,0,28.96,11.48,28.96,27.61s-12.83,27.61-28.96,27.61-28.85-11.37-28.85-27.61,12.81-27.61,28.85-27.61h0Zm0,44.07c8.59,0,15.72-6.62,15.72-16.44s-7.13-16.44-15.72-16.44-15.61,6.73-15.61,16.44,7.13,16.44,15.61,16.44Z"/>
    <path class="cls-1" d="m182.22,140.64c0-1.55-.83-2.27-2.27-2.27h-4.13v-11.17h12c4.65,0,7.04,1.97,7.04,6.41v3.1c0,1.97-.2,3.32-.2,3.32h.2c2.38-7.56,8.68-13.55,16.75-13.55,1.14,0,2.38.2,2.38.2v12.92s-1.35-.2-3.21-.2c-5.58,0-12,3.21-14.38,11.06-.72,2.58-1.14,5.48-1.14,8.59v20.89h-13.03v-39.3h-.01Z"/>
    <path class="cls-1" d="m241.05,125.5c11.48,0,15.21,6.41,15.21,6.41h.2s-.11-1.35-.11-3.1v-9.31c0-1.55-.83-2.27-2.27-2.27h-4.13v-11.17h12.52c4.86,0,7.04,2.17,7.04,7.04v53.05c0,1.45.83,2.27,2.27,2.27h4.04v11.06h-12.09c-4.76,0-6.51-2.27-6.51-5.38v-1.97h-.2s-4.35,8.59-16.44,8.59c-14.27,0-23.48-11.28-23.48-27.61-.03-16.74,10-27.61,23.97-27.61h-.02Zm15.62,27.52c0-8.17-4.24-16.24-13.03-16.24-7.24,0-13.24,5.9-13.24,16.35s5.27,16.55,13.03,16.55c6.82-.01,13.24-4.97,13.24-16.66h0Z"/>
    <path class="cls-1" d="m305.17,125.95c15.1,0,23.37,11.06,23.37,25.03,0,1.55-.31,4.86-.31,4.86h-36.4c1.03,9.31,7.85,14.17,15.82,14.17,8.48,0,14.78-5.9,14.78-5.9l5.48,9.1s-8.07,7.96-21.2,7.96c-17.47,0-28.33-12.62-28.33-27.61.01-16.24,10.98-27.63,26.8-27.63v.02h-.01Zm9.93,20.8c-.2-6.31-4.55-10.65-9.93-10.65-6.73,0-11.48,4.04-12.92,10.65h22.86-.01Z"/>
    <path class="cls-1" d="m360.1,125.95c15.1,0,23.37,11.06,23.37,25.03,0,1.55-.31,4.86-.31,4.86h-36.4c1.03,9.31,7.85,14.17,15.82,14.17,8.48,0,14.78-5.9,14.78-5.9l5.48,9.1s-8.07,7.96-21.2,7.96c-17.47,0-28.33-12.62-28.33-27.61.01-16.24,10.98-27.63,26.8-27.63v.02h-.01Zm9.93,20.8c-.2-6.31-4.55-10.65-9.93-10.65-6.73,0-11.48,4.04-12.92,10.65h22.86-.01Z"/>
    <path class="cls-1" d="m389.67,119.96c0-1.55-.83-2.27-2.27-2.27h-4.13v-11.17h12.52c4.86,0,7.04,2.17,7.04,7.04v53.05c0,1.45.83,2.27,2.27,2.27h4.04v11.06h-12.41c-4.96,0-7.04-2.07-7.04-7.04v-52.94h-.02Z"/>
  </g>
</svg>