<svg width="34" height="18" viewBox="0 0 34 18" fill="none" xmlns="http://www.w3.org/2000/svg">
<path d="M0.380363 10.0199C0.380752 10.0204 0.381076 10.0209 0.38153 10.0213L7.15911 17.564C7.66686 18.1291 8.48812 18.127 8.99353 17.5591C9.49888 16.9913 9.49693 16.0729 8.98918 15.5078L4.43871 10.4437L31.9085 10.4437C32.6249 10.4437 33.2056 9.79431 33.2056 8.99319C33.2056 8.19207 32.6249 7.54267 31.9085 7.54267L4.43878 7.54268L8.98912 2.47863C9.49687 1.91351 9.49881 0.995115 8.99346 0.427311C8.48805 -0.140638 7.66673 -0.142597 7.15904 0.422381L0.381465 7.96507C0.381076 7.9655 0.380748 7.96601 0.380294 7.96644C-0.127713 8.53345 -0.126092 9.45482 0.380363 10.0199Z" fill="#F48C02"/>
</svg>
