<svg width="139" height="52" viewBox="0 0 139 52" fill="none" xmlns="http://www.w3.org/2000/svg">
<path d="M128.925 49.3684C129.314 49.8631 129.801 50.2716 130.355 50.5678C130.91 50.8639 131.52 51.0413 132.148 51.0886C132.775 51.136 133.405 51.0522 133.998 50.8426C134.591 50.6331 135.134 50.3022 135.592 49.8714C136.142 49.7315 136.656 49.477 137.101 49.1245C137.546 48.7721 137.912 48.3296 138.174 47.8261C138.436 47.3226 138.589 46.7695 138.622 46.2028C138.656 45.6361 138.569 45.0687 138.368 44.5378L134.683 36.756C132.929 30.299 130.091 24.1865 126.292 18.6784C123.682 14.8762 116.704 17.8906 118.781 22.3944L121.467 28.2442C90.0145 -0.501036 41.1346 -7.83765 2.83357 12.6258C-1.97238 15.1743 2.74305 22.1924 7.52235 19.6617C43.0295 0.694485 88.9781 8.59905 117.416 36.0247C114.01 35.5737 110.571 35.4185 107.139 35.561C101.711 35.791 102.309 44.2252 107.759 43.9996C114.432 43.6488 121.099 44.7862 127.278 47.3295C127.948 48.018 128.437 48.6932 128.925 49.3684Z" fill="white"/>
</svg>
