<svg width="23" height="24" viewBox="0 0 23 24" fill="none" xmlns="http://www.w3.org/2000/svg">
<g id="Group">
<path id="Vector" d="M17.9615 14.5703C17.7115 14.3208 17.3726 14.1806 17.0192 14.1806C16.6659 14.1806 16.327 14.3208 16.0769 14.5703L14.6339 16.0134C13.403 17.2457 10.8512 15.3893 9.61435 14.1522C7.80256 12.3406 6.51948 9.87581 7.5082 8.88707L8.95139 7.44404C9.20096 7.19397 9.34112 6.8551 9.34112 6.5018C9.34112 6.1485 9.20096 5.80963 8.95139 5.55956L5.47391 2.08199C5.22381 1.8324 4.88492 1.69223 4.53159 1.69223C4.17827 1.69223 3.83937 1.8324 3.58928 2.08199L2.14628 3.52502C-1.50473 7.17613 1.45865 13.4659 5.75722 17.7644C9.66627 21.6735 16.1602 25.2115 19.9962 21.3754L21.4394 19.9324C21.6889 19.6823 21.829 19.3434 21.829 18.9902C21.829 18.6369 21.6889 18.298 21.4394 18.0479L17.9615 14.5703ZM4.07791 2.57044C4.19845 2.45021 4.36174 2.3827 4.53199 2.3827C4.70223 2.3827 4.86553 2.45021 4.98607 2.57044L8.46276 6.0482C8.58287 6.1686 8.65032 6.33173 8.65032 6.5018C8.65032 6.67187 8.58287 6.835 8.46276 6.9554L7.26398 8.15421L2.87913 3.76925L4.07791 2.57044ZM6.24585 17.276C2.84458 13.8746 -0.743254 7.86852 2.39879 4.26618L6.79746 8.66555C5.78032 10.1496 7.23417 12.7494 9.12552 14.6408C10.5715 16.0866 13.1866 17.915 14.8586 16.7263L19.2551 21.1235C15.6564 24.2627 9.65442 20.6846 6.24585 17.276ZM20.9508 19.4438L19.752 20.6428L15.3672 16.2576L16.5659 15.0588C16.6865 14.9386 16.8498 14.8711 17.02 14.8711C17.1903 14.8711 17.3536 14.9386 17.4741 15.0588L20.9508 18.5371C21.0707 18.6575 21.1381 18.8205 21.1381 18.9904C21.1381 19.1604 21.0707 19.3234 20.9508 19.4438Z" fill="#49B7AC"/>
<path id="Vector_2" d="M11.414 8.41127C13.206 8.99666 14.3618 10.1526 14.9479 11.9453C14.989 12.0762 15.0556 12.1976 15.1439 12.3025C15.2322 12.4074 15.3405 12.4938 15.4624 12.5566C15.5843 12.6194 15.7175 12.6573 15.8542 12.6683C15.9909 12.6792 16.1285 12.6629 16.2588 12.6203C16.3892 12.5777 16.5098 12.5097 16.6137 12.4201C16.7176 12.3306 16.8026 12.2213 16.864 12.0986C16.9253 11.9759 16.9617 11.8423 16.971 11.7055C16.9803 11.5687 16.9624 11.4313 16.9182 11.3015C16.1246 8.8703 14.4899 7.23438 12.0584 6.4413C11.929 6.39904 11.7926 6.38267 11.6569 6.39314C11.5212 6.4036 11.3889 6.44069 11.2675 6.50229C11.1462 6.56389 11.0381 6.64879 10.9496 6.75215C10.861 6.85551 10.7937 6.97529 10.7514 7.10467C10.7092 7.23404 10.6928 7.37048 10.7033 7.50618C10.7137 7.64188 10.7508 7.77419 10.8124 7.89556C10.874 8.01692 10.9589 8.12497 11.0623 8.21352C11.1656 8.30208 11.2854 8.3694 11.4148 8.41167L11.414 8.41127ZM11.4069 7.31888C11.4355 7.23182 11.4974 7.15964 11.5791 7.11816C11.6608 7.07667 11.7556 7.06927 11.8428 7.09756C14.0524 7.81937 15.5392 9.30583 16.2606 11.5155C16.289 11.6026 16.2817 11.6975 16.2402 11.7792C16.1988 11.8609 16.1266 11.9229 16.0395 11.9514C15.9524 11.9785 15.8581 11.9706 15.7767 11.9293C15.6954 11.888 15.6333 11.8166 15.6038 11.7303C14.9454 9.71353 13.6451 8.41344 11.6286 7.75461C11.5415 7.7261 11.4693 7.66423 11.4277 7.58256C11.3862 7.50088 11.3787 7.40607 11.4069 7.31888Z" fill="#49B7AC"/>
<path id="Vector_3" d="M12.528 5.78306C15.0892 6.61859 16.7409 8.2707 17.5772 10.8314C17.6626 11.0927 17.8483 11.3094 18.0934 11.4338C18.3385 11.5582 18.6231 11.5801 18.8844 11.4948C19.1457 11.4094 19.3624 11.2237 19.4868 10.9786C19.6112 10.7334 19.6331 10.4489 19.5477 10.1876C18.5061 6.99825 16.3611 4.85315 13.1718 3.8117C13.042 3.76756 12.9047 3.74963 12.7678 3.75895C12.631 3.76827 12.4974 3.80465 12.3747 3.86599C12.252 3.92732 12.1428 4.0124 12.0532 4.11627C11.9637 4.22015 11.8956 4.34077 11.853 4.47114C11.8104 4.6015 11.7941 4.73903 11.8051 4.87574C11.816 5.01246 11.854 5.14564 11.9167 5.26758C11.9795 5.38951 12.0659 5.49777 12.1708 5.58609C12.2757 5.67441 12.3972 5.74102 12.528 5.78207V5.78306ZM12.5213 4.69067C12.5354 4.64748 12.5578 4.60749 12.5873 4.57299C12.6168 4.53848 12.6529 4.51014 12.6934 4.48958C12.7338 4.46902 12.778 4.45665 12.8233 4.45318C12.8686 4.44971 12.9141 4.4552 12.9572 4.46935C15.9251 5.43775 17.9215 7.43418 18.8901 10.403C18.9185 10.4901 18.9111 10.5849 18.8696 10.6666C18.8282 10.7484 18.756 10.8103 18.669 10.8389C18.5819 10.866 18.4876 10.8581 18.4062 10.8168C18.3249 10.7755 18.2628 10.7041 18.2333 10.6178C17.3239 7.8322 15.5285 6.03597 12.742 5.1264C12.6549 5.09769 12.5827 5.03558 12.5413 4.9537C12.4999 4.87182 12.4927 4.77686 12.5213 4.68968V4.69067Z" fill="#49B7AC"/>
<path id="Vector_4" d="M22.4485 9.39822C21.0811 5.2105 18.2637 2.39216 14.075 1.02494C13.9456 0.982695 13.8092 0.966348 13.6735 0.976836C13.5378 0.987324 13.4054 1.02444 13.2841 1.08607C13.1627 1.1477 13.0547 1.23263 12.9661 1.33601C12.8776 1.43939 12.8102 1.55921 12.768 1.68861C12.7257 1.81801 12.7094 1.95447 12.7199 2.09019C12.7304 2.22591 12.7675 2.35823 12.8291 2.47961C12.8907 2.60098 12.9757 2.70903 13.079 2.79758C13.1824 2.88614 13.3022 2.95346 13.4316 2.99571C17.006 4.16273 19.3106 6.46755 20.4778 10.0419C20.5631 10.3032 20.7487 10.5199 20.9938 10.6444C21.1152 10.7061 21.2475 10.7432 21.3832 10.7537C21.5189 10.7642 21.6554 10.7479 21.7848 10.7056C21.9142 10.6634 22.034 10.5961 22.1374 10.5075C22.2407 10.419 22.3257 10.311 22.3873 10.1896C22.449 10.0682 22.4861 9.9359 22.4966 9.80019C22.5071 9.66447 22.4907 9.52802 22.4485 9.39862V9.39822ZM21.57 10.0484C21.483 10.0752 21.389 10.0671 21.3079 10.0258C21.2268 9.98449 21.165 9.91319 21.1356 9.82705C19.8942 6.02826 17.4447 3.57872 13.646 2.33826C13.6024 2.32458 13.562 2.30239 13.527 2.27296C13.492 2.24353 13.4632 2.20745 13.4423 2.16682C13.4213 2.12618 13.4087 2.08179 13.405 2.03623C13.4014 1.99066 13.4068 1.94482 13.421 1.90137C13.4351 1.85791 13.4578 1.8177 13.4876 1.78307C13.5175 1.74844 13.5539 1.72007 13.5948 1.69961C13.6356 1.67915 13.6802 1.66701 13.7258 1.66388C13.7714 1.66076 13.8172 1.66671 13.8604 1.6814C17.8279 2.97675 20.4962 5.64485 21.7919 9.61323C21.8199 9.70025 21.8123 9.79486 21.7707 9.87628C21.7291 9.95771 21.6569 10.0193 21.57 10.0476V10.0484Z" fill="#49B7AC"/>
</g>
</svg>
