<svg xmlns="http://www.w3.org/2000/svg" width="119" height="119" viewBox="0 0 119 119" fill="none">
<g id="vuesax/outline/tick-circle">
<g id="tick-circle">
<path id="Vector" d="M59.4998 112.802C30.0969 112.802 6.19775 88.9029 6.19775 59.5C6.19775 30.0971 30.0969 6.19792 59.4998 6.19792C88.9027 6.19792 112.802 30.0971 112.802 59.5C112.802 88.9029 88.9027 112.802 59.4998 112.802ZM59.4998 13.6354C34.2123 13.6354 13.6353 34.2125 13.6353 59.5C13.6353 84.7875 34.2123 105.365 59.4998 105.365C84.7873 105.365 105.364 84.7875 105.364 59.5C105.364 34.2125 84.7873 13.6354 59.4998 13.6354Z" fill="#49b7ac"/>
<path id="Vector_2" d="M52.4611 77.2507C51.4694 77.2507 50.5273 76.854 49.8332 76.1599L35.8011 62.1278C34.3632 60.6899 34.3632 58.3099 35.8011 56.872C37.239 55.434 39.619 55.434 41.0569 56.872L52.4611 68.2761L77.9469 42.7903C79.3848 41.3524 81.7648 41.3524 83.2028 42.7903C84.6407 44.2282 84.6407 46.6082 83.2028 48.0461L55.089 76.1599C54.3948 76.854 53.4528 77.2507 52.4611 77.2507Z" fill="#49b7ac"/>
</g>
</g>
</svg>