<svg width="149" height="70" viewBox="0 0 149 70" fill="none" xmlns="http://www.w3.org/2000/svg">
<mask id="mask0_1_186" style="mask-type:luminance" maskUnits="userSpaceOnUse" x="0" y="0" width="112" height="29">
<path d="M111.577 0.742676H0V28.1376H111.577V0.742676Z" fill="white"/>
</mask>
<g mask="url(#mask0_1_186)">
<path d="M29.3052 10.468H40.5931V12.5953H36.1648V24.4476H33.7335V12.5519H29.3052V10.468ZM40.1155 14.2885H42.1995V16.2422H42.2429C42.3297 15.9817 42.4599 15.7212 42.6336 15.4607C42.8073 15.2002 43.0678 14.9397 43.3282 14.766C43.5887 14.549 43.8926 14.3753 44.1965 14.2451C44.5005 14.1148 44.8478 14.028 45.1951 14.028C45.4556 14.028 45.6292 14.028 45.7161 14.028C45.8029 14.028 45.9331 14.0714 46.02 14.0714V16.1987C45.8463 16.1553 45.7161 16.1553 45.5424 16.1119C45.3688 16.1119 45.2385 16.0685 45.0648 16.0685C44.6741 16.0685 44.3268 16.1553 44.0229 16.2856C43.6756 16.4158 43.4151 16.6763 43.1546 16.9368C42.8941 17.2407 42.7204 17.588 42.5468 18.0222C42.4165 18.4563 42.3297 18.9339 42.3297 19.4983V24.3174H40.1155V14.2885ZM56.2659 24.4042H54.0952V23.0149H54.0518C53.7913 23.5359 53.3571 23.9266 52.8361 24.2305C52.3152 24.5344 51.7508 24.7081 51.1864 24.7081C49.8405 24.7081 48.8854 24.4042 48.321 23.7096C47.7132 23.0583 47.4527 22.0598 47.4527 20.7139V14.2885H49.6668V20.4968C49.6668 21.3651 49.8405 22.0164 50.1878 22.3637C50.5351 22.711 51.0127 22.9281 51.6205 22.9281C52.0981 22.9281 52.4888 22.8413 52.7927 22.711C53.0966 22.5808 53.3571 22.3637 53.5308 22.1466C53.7479 21.9295 53.8781 21.6256 53.9649 21.2783C54.0518 20.931 54.0952 20.5837 54.0952 20.1929V14.3319H56.3093V24.4042H56.2659ZM60.0865 21.1481C60.1733 21.7993 60.3904 22.2334 60.8245 22.5373C61.2587 22.7978 61.7796 22.9281 62.3875 22.9281C62.6045 22.9281 62.8216 22.9281 63.0821 22.8847C63.3426 22.8413 63.6031 22.7978 63.8202 22.711C64.0372 22.6242 64.2543 22.4939 64.3846 22.3203C64.5148 22.1466 64.6016 21.9295 64.6016 21.6256C64.6016 21.3217 64.4714 21.1047 64.2977 20.931C64.0807 20.7573 63.8636 20.6271 63.5597 20.4968C63.2558 20.41 62.9084 20.2798 62.5177 20.1929C62.127 20.1061 61.7362 20.0193 61.3455 19.9324C60.9114 19.8456 60.5206 19.7154 60.1299 19.5851C59.7391 19.4549 59.3918 19.2812 59.0879 19.0641C58.784 18.8471 58.5235 18.5432 58.3499 18.1958C58.1762 17.8485 58.0894 17.4144 58.0894 16.9368C58.0894 16.3724 58.2196 15.9383 58.4801 15.5475C58.7406 15.1568 59.0879 14.8963 59.4787 14.6358C59.9128 14.4187 60.347 14.2451 60.8679 14.1582C61.3889 14.0714 61.8665 14.028 62.3006 14.028C62.8216 14.028 63.3426 14.0714 63.7767 14.2017C64.2543 14.2885 64.6885 14.5056 65.0792 14.7226C65.4699 14.9831 65.7738 15.287 66.0343 15.6778C66.2948 16.0685 66.4685 16.5461 66.5119 17.1105H64.1675C64.0807 16.5895 63.8202 16.1987 63.4294 16.0251C63.0387 15.8514 62.6045 15.7646 62.127 15.7646C61.9533 15.7646 61.7797 15.7646 61.5626 15.808C61.3455 15.8514 61.1284 15.8948 60.9548 15.9383C60.7811 16.0251 60.6074 16.1119 60.4772 16.2422C60.347 16.3724 60.2601 16.5461 60.2601 16.7631C60.2601 17.0236 60.347 17.2407 60.564 17.4144C60.7377 17.588 60.9982 17.7183 61.3021 17.8485C61.606 17.9354 61.9533 18.0656 62.344 18.1524C62.7348 18.2393 63.1255 18.3261 63.5597 18.4129C63.9504 18.4997 64.3411 18.63 64.7319 18.7602C65.1226 18.8905 65.4699 19.0641 65.7738 19.2812C66.0777 19.4983 66.3382 19.8022 66.5119 20.1061C66.6856 20.41 66.8158 20.8442 66.8158 21.3651C66.8158 21.973 66.6856 22.4505 66.3816 22.8847C66.1212 23.3188 65.7304 23.6227 65.3397 23.8832C64.9055 24.1437 64.428 24.3174 63.8636 24.4476C63.3426 24.5779 62.8216 24.6213 62.2572 24.6213C61.606 24.6213 61.0416 24.5344 60.4772 24.4042C59.9562 24.2739 59.4787 24.0569 59.0879 23.753C58.6972 23.4491 58.3933 23.1017 58.1328 22.6676C57.9157 22.2334 57.7855 21.7125 57.7855 21.1047L60.0865 21.1481ZM67.4236 14.2885H69.1168V11.2494H71.331V14.2885H73.3281V15.9383H71.331V21.3217C71.331 21.5388 71.331 21.7559 71.3744 21.9295C71.3744 22.1032 71.4612 22.2334 71.5046 22.3637C71.5915 22.4939 71.6783 22.5808 71.8085 22.6242C71.9388 22.6676 72.1559 22.711 72.4163 22.711C72.59 22.711 72.7202 22.711 72.8939 22.711C73.0676 22.711 73.1978 22.6676 73.3715 22.6242V24.3608C73.111 24.4042 72.8939 24.4042 72.6334 24.4476C72.4163 24.491 72.1559 24.491 71.8954 24.491C71.2876 24.491 70.8534 24.4476 70.4627 24.3174C70.1153 24.2305 69.8114 24.0569 69.6378 23.8398C69.4207 23.6227 69.2905 23.3622 69.2036 23.0149C69.1168 22.711 69.0734 22.3203 69.0734 21.8861V15.9817H67.3802L67.4236 14.2885ZM74.9344 14.2885H77.0618V15.6778H77.1052C77.4091 15.07 77.8432 14.6792 78.4076 14.4187C78.972 14.1582 79.5798 14.028 80.2311 14.028C81.0125 14.028 81.7072 14.1582 82.315 14.4621C82.9228 14.7226 83.4004 15.1134 83.7911 15.6344C84.1818 16.1119 84.4857 16.7197 84.6594 17.3275C84.8765 17.9788 84.9633 18.6734 84.9633 19.4115C84.9633 20.1061 84.8765 20.7573 84.7028 21.3651C84.5292 22.0164 84.2687 22.5808 83.9213 23.0583C83.574 23.5359 83.0965 23.9266 82.5755 24.2305C82.0111 24.5344 81.4033 24.6647 80.6218 24.6647C80.3179 24.6647 79.9706 24.6213 79.6667 24.5779C79.3628 24.5344 79.0154 24.4042 78.7115 24.274C78.4076 24.1437 78.1471 23.97 77.8866 23.753C77.6261 23.5359 77.4091 23.3188 77.2354 23.0583H77.192V28.0945H74.9778V14.2885H74.9344ZM82.7057 19.368C82.7057 18.9339 82.6623 18.4563 82.5321 18.0222C82.4018 17.588 82.2281 17.1973 82.0111 16.8934C81.794 16.5461 81.4901 16.2856 81.1428 16.1119C80.7954 15.8948 80.4047 15.808 79.9272 15.808C78.972 15.808 78.2774 16.1119 77.7998 16.7631C77.3222 17.4144 77.1052 18.2827 77.1052 19.368C77.1052 19.889 77.1486 20.3666 77.2788 20.8007C77.4091 21.2349 77.5827 21.6256 77.8432 21.9295C78.1037 22.2334 78.3642 22.4939 78.7115 22.6676C79.0588 22.8413 79.4496 22.9281 79.9272 22.9281C80.4481 22.9281 80.8823 22.8413 81.2296 22.6242C81.5769 22.4071 81.8808 22.1466 82.0979 21.7993C82.315 21.452 82.4886 21.1047 82.5755 20.6705C82.6623 20.2363 82.7057 19.8022 82.7057 19.368ZM86.6131 10.468H88.8272V12.5953H86.6131V10.468ZM86.6131 14.2885H88.8272V24.4042H86.6131V14.2885ZM90.8243 10.468H93.0385V24.4042H90.8243V10.468ZM99.8981 24.6647C99.0732 24.6647 98.3786 24.5344 97.7273 24.274C97.0761 24.0135 96.5551 23.6227 96.121 23.1886C95.6868 22.711 95.3395 22.1466 95.1224 21.4954C94.9053 20.8442 94.7751 20.1061 94.7751 19.368C94.7751 18.5866 94.9053 17.8919 95.1224 17.2407C95.3395 16.5895 95.6868 16.0251 96.121 15.5475C96.5551 15.07 97.0761 14.7226 97.7273 14.4621C98.3786 14.2017 99.0732 14.0714 99.8981 14.0714C100.723 14.0714 101.418 14.2017 102.069 14.4621C102.72 14.7226 103.241 15.1134 103.675 15.5475C104.109 16.0251 104.457 16.5895 104.674 17.2407C104.891 17.8919 105.021 18.5866 105.021 19.368C105.021 20.1495 104.891 20.8442 104.674 21.4954C104.457 22.1466 104.109 22.711 103.675 23.1886C103.241 23.6661 102.72 24.0135 102.069 24.274C101.418 24.5344 100.723 24.6647 99.8981 24.6647ZM99.8981 22.9281C100.376 22.9281 100.81 22.8413 101.201 22.6242C101.548 22.4071 101.852 22.1466 102.112 21.7993C102.329 21.452 102.503 21.0612 102.633 20.6705C102.72 20.2363 102.807 19.8022 102.807 19.368C102.807 18.9339 102.763 18.4997 102.633 18.0656C102.546 17.6314 102.329 17.2407 102.112 16.9368C101.895 16.5895 101.591 16.329 101.201 16.1119C100.853 15.8948 100.419 15.808 99.8981 15.808C99.4205 15.808 98.9864 15.8948 98.5956 16.1119C98.2483 16.329 97.9444 16.5895 97.6839 16.9368C97.4668 17.2841 97.2932 17.6314 97.1629 18.0656C97.0761 18.4997 96.9893 18.9339 96.9893 19.368C96.9893 19.8022 97.0327 20.2363 97.1629 20.6705C97.2498 21.1047 97.4668 21.4954 97.6839 21.7993C97.901 22.1466 98.2049 22.4071 98.5956 22.6242C98.9864 22.8413 99.4205 22.9281 99.8981 22.9281ZM105.629 14.2885H107.322V11.2494H109.536V14.2885H111.533V15.9383H109.536V21.3217C109.536 21.5388 109.536 21.7559 109.58 21.9295C109.58 22.1032 109.666 22.2334 109.71 22.3637C109.797 22.4939 109.884 22.5808 110.014 22.6242C110.144 22.6676 110.361 22.711 110.622 22.711C110.795 22.711 110.926 22.711 111.099 22.711C111.273 22.711 111.403 22.6676 111.577 22.6242V24.3608C111.316 24.4042 111.099 24.4042 110.839 24.4476C110.622 24.491 110.361 24.491 110.101 24.491C109.493 24.491 109.059 24.4476 108.668 24.3174C108.321 24.2305 108.017 24.0569 107.843 23.8398C107.626 23.6227 107.496 23.3622 107.409 23.0149C107.322 22.711 107.279 22.3203 107.279 21.8861V15.9817H105.585L105.629 14.2885Z" fill="#191919"/>
<path d="M26.7003 10.4677H16.4977L13.3718 0.742676L10.2025 10.4677L0 10.4242L8.24886 16.4155L5.07956 26.0971L13.3284 20.1058L21.5773 26.0971L18.408 16.4155L26.7003 10.4677Z" fill="#04DA8D"/>
<path d="M19.1892 18.6299L18.4946 16.4158L13.3716 20.1061L19.1892 18.6299Z" fill="#005128"/>
</g>
<rect y="41.3051" width="28.0725" height="28.0725" fill="#04DA8D"/>
<g clip-path="url(#clip0_1_186)">
<path d="M24.7555 53.0514H16.9515L14.5409 45.624L12.1229 53.0514L4.31885 53.0438L10.6389 57.6389L8.22087 65.0587L14.5409 60.4712L20.8535 65.0587L18.443 57.6389L24.7555 53.0514Z" fill="white"/>
<path d="M18.9849 59.3188L18.4425 57.639L14.5405 60.4713L18.9849 59.3188Z" fill="#00532C"/>
</g>
<rect x="30.2319" y="41.3053" width="28.0725" height="28.0725" fill="#04DA8D"/>
<g clip-path="url(#clip1_1_186)">
<path d="M54.9874 53.0516H47.1834L44.7729 45.6242L42.3548 53.0516L34.5508 53.0441L40.8709 57.6391L38.4528 65.059L44.7729 60.4715L51.0854 65.059L48.6749 57.6391L54.9874 53.0516Z" fill="white"/>
<path d="M49.2168 59.319L48.6745 57.6392L44.7725 60.4716L49.2168 59.319Z" fill="#00532C"/>
</g>
<rect x="60.4639" y="41.3053" width="28.0725" height="28.0725" fill="#04DA8D"/>
<g clip-path="url(#clip2_1_186)">
<path d="M85.2194 53.0516H77.4153L75.0048 45.6242L72.5868 53.0516L64.7827 53.0441L71.1028 57.6391L68.6847 65.059L75.0048 60.4715L81.3173 65.059L78.9068 57.6391L85.2194 53.0516Z" fill="white"/>
<path d="M79.4488 59.319L78.9064 57.6392L75.0044 60.4716L79.4488 59.319Z" fill="#00532C"/>
</g>
<rect x="90.6958" y="41.3053" width="28.0725" height="28.0725" fill="#04DA8D"/>
<g clip-path="url(#clip3_1_186)">
<path d="M115.451 53.0516H107.647L105.237 45.6242L102.819 53.0516L95.0146 53.0441L101.335 57.6391L98.9167 65.059L105.237 60.4715L111.549 65.059L109.139 57.6391L115.451 53.0516Z" fill="white"/>
<path d="M109.681 59.319L109.138 57.6392L105.236 60.4716L109.681 59.319Z" fill="#00532C"/>
</g>
<rect x="120.927" y="41.3053" width="28.0725" height="28.0725" fill="#C5C5C5"/>
<g clip-path="url(#clip4_1_186)">
<path d="M145.683 53.0516H137.879L135.468 45.6242L133.05 53.0516L125.246 53.0441L131.566 57.6391L129.148 65.059L135.468 60.4715L141.781 65.059L139.37 57.6391L145.683 53.0516Z" fill="white"/>
<path d="M139.912 59.319L139.37 57.6392L135.468 60.4716L139.912 59.319Z" fill="#00532C"/>
</g>
<defs>
<clipPath id="clip0_1_186">
<rect width="20.4367" height="19.4348" fill="white" transform="translate(4.31885 45.624)"/>
</clipPath>
<clipPath id="clip1_1_186">
<rect width="20.4367" height="19.4348" fill="white" transform="translate(34.5508 45.6242)"/>
</clipPath>
<clipPath id="clip2_1_186">
<rect width="20.4367" height="19.4348" fill="white" transform="translate(64.7827 45.6242)"/>
</clipPath>
<clipPath id="clip3_1_186">
<rect width="20.4367" height="19.4348" fill="white" transform="translate(95.0146 45.6242)"/>
</clipPath>
<clipPath id="clip4_1_186">
<rect width="20.4367" height="19.4348" fill="white" transform="translate(125.246 45.6242)"/>
</clipPath>
</defs>
</svg>
